<svg width="539" height="481" viewBox="0 0 539 481" fill="none" xmlns="http://www.w3.org/2000/svg">
<rect width="538.045" height="480.584" fill="white"/>
<path d="M353.124 174.288C345.307 174.58 331.81 175.393 304.473 180.197C288.84 182.944 255.815 189.251 208.198 203.48C185.286 210.334 156.395 219.785 123.405 232.681C126.249 236.505 129.19 240.789 132.096 245.532C135.223 250.646 137.864 255.557 140.09 260.133C153.829 257.185 167.394 253.473 180.72 249.012C189.623 246.027 197.961 242.83 205.742 239.623C214.387 235.147 223.652 231.986 233.23 230.243C247.671 227.646 259.551 228.989 270.759 230.243C277.656 231.017 284.503 232.179 291.269 233.723C304.466 225.025 319.412 219.329 335.052 217.038C344.04 215.814 353.144 215.698 362.159 216.694C371.302 217.677 380.29 219.777 388.922 222.947L415.685 178.784C395.056 175.02 374.079 173.513 353.124 174.288ZM332.738 197.863C331.69 197.863 330.665 197.552 329.794 196.97C328.922 196.387 328.243 195.56 327.842 194.591C327.441 193.623 327.336 192.557 327.54 191.529C327.745 190.501 328.249 189.557 328.99 188.816C329.732 188.075 330.676 187.57 331.704 187.365C332.732 187.161 333.798 187.266 334.766 187.667C335.734 188.068 336.562 188.747 337.144 189.619C337.727 190.49 338.037 191.515 338.037 192.563C338.037 193.969 337.479 195.317 336.485 196.31C335.491 197.304 334.143 197.863 332.738 197.863ZM349.069 196.82C348.021 196.82 346.997 196.51 346.125 195.927C345.254 195.345 344.574 194.517 344.173 193.549C343.772 192.581 343.667 191.515 343.872 190.487C344.076 189.459 344.581 188.515 345.322 187.774C346.063 187.032 347.007 186.528 348.035 186.323C349.063 186.119 350.129 186.224 351.097 186.625C352.066 187.026 352.893 187.705 353.476 188.577C354.058 189.448 354.369 190.473 354.369 191.521C354.369 192.219 354.231 192.91 353.963 193.555C353.695 194.2 353.302 194.785 352.807 195.278C352.312 195.77 351.725 196.16 351.079 196.425C350.433 196.689 349.741 196.824 349.043 196.82H349.069ZM366.072 195.796C365.024 195.796 363.999 195.485 363.128 194.903C362.256 194.32 361.577 193.493 361.176 192.524C360.775 191.556 360.67 190.49 360.874 189.462C361.079 188.434 361.584 187.49 362.325 186.749C363.066 186.008 364.01 185.503 365.038 185.299C366.066 185.094 367.132 185.199 368.1 185.6C369.069 186.001 369.896 186.68 370.479 187.552C371.061 188.424 371.372 189.448 371.372 190.496C371.372 191.902 370.813 193.25 369.82 194.244C368.826 195.238 367.478 195.796 366.072 195.796ZM381.971 194.294C380.923 194.294 379.898 193.983 379.027 193.401C378.155 192.819 377.476 191.991 377.075 191.023C376.674 190.054 376.569 188.989 376.773 187.961C376.978 186.933 377.482 185.989 378.223 185.247C378.965 184.506 379.909 184.001 380.937 183.797C381.965 183.593 383.031 183.697 383.999 184.099C384.967 184.5 385.795 185.179 386.377 186.05C386.96 186.922 387.27 187.947 387.27 188.995C387.268 189.691 387.128 190.381 386.859 191.024C386.59 191.666 386.197 192.249 385.703 192.74C385.208 193.231 384.621 193.619 383.976 193.883C383.332 194.146 382.641 194.28 381.944 194.277L381.971 194.294Z" fill="#017ECB"/>
<path d="M144.144 276.932C155.359 274.019 166.385 270.42 177.16 266.157C188.315 261.74 193.403 258.852 207.394 253.791C215.979 250.664 221.985 248.491 229.29 246.725C242.447 243.612 256.019 242.634 269.487 243.828L260.222 247.997C234.157 259.744 233.168 260.362 228.009 262.359C219.294 265.738 210.401 268.64 201.37 271.05C192.661 273.452 186.443 275.175 178.547 276.349C167.154 278.053 155.587 278.249 144.144 276.932Z" fill="#017ECB"/>
<path d="M175.518 289.422C195.674 284.06 212.438 278.593 225.095 274.132C238.247 269.495 262.333 260.998 281.165 251.653C283.382 250.558 291.128 246.672 301.789 242.388C309.385 239.341 314.834 237.548 317.078 236.832C325.283 234.183 332.279 232.513 334.92 231.966C352.32 228.335 373.783 233.485 381.954 235.675C378.173 243.542 374.39 251.418 370.604 259.303C366.585 257.428 362.393 255.949 358.088 254.886C345.581 251.812 335.282 253.067 321.485 254.886C313.889 255.769 306.373 257.245 299.006 259.303C287.966 262.438 283.647 265.159 271.44 269.963C271.44 269.963 260.328 274.327 242.707 279.459C230.545 283.027 208.472 288.176 175.518 289.422Z" fill="#017ECB"/>
<path d="M234.387 289.422C241.397 288.65 248.359 287.491 255.241 285.95C264.206 283.937 271.086 281.711 275.856 280.156C289.785 275.616 291.755 273.779 301.347 271.324C307.207 269.871 313.168 268.865 319.18 268.312C334.965 266.761 350.893 267.541 366.452 270.626C364.438 276.809 362.43 282.991 360.428 289.174L234.387 289.422Z" fill="#017ECB"/>
<path d="M155.838 208.162L156.077 192.175C169.803 186.407 180.808 181.531 188.042 178.272C202.846 171.612 215.096 165.783 233.919 158.116C241.177 155.062 248.606 152.432 256.168 150.237C263.343 148.207 270.623 146.568 277.976 145.326C299.404 141.793 319.489 142.544 331.502 143.48L350.05 160.854C344.477 160.704 337.04 160.624 328.269 160.854C324.515 160.951 295.659 164.122 282.127 165.694C269.867 167.125 256.274 170.994 240.923 176.143L240.234 164.564L226.102 170.119V180.542L205.257 187.961C205.018 185.1 204.789 182.247 204.559 179.385L190.657 185.647V194.215C183.944 196.538 176.975 199.152 169.803 202.094C164.957 204.072 160.302 206.095 155.838 208.162Z" fill="#017ECB"/>
<path d="M207.509 154.601C207.897 146.174 208.283 137.754 208.666 129.339C215.791 126.459 223.157 124.213 230.677 122.627C241.355 120.374 255.408 117.415 272.19 121.231C281.47 123.374 290.27 127.226 298.14 132.59C266.343 129.908 234.535 137.633 207.509 154.601Z" fill="#017ECB"/>
<path d="M167.426 169.89L149.814 176.364C152.639 153.767 161.616 132.38 175.764 114.536C183.468 105.137 192.526 96.9361 202.642 90.2021C213.405 83.0377 225.205 77.5684 237.628 73.9854C247.565 71.1236 276.809 63.139 310.612 74.6832C326.809 80.3108 341.59 89.3878 353.936 101.287C363.01 109.725 370.753 119.49 376.901 130.249C382.361 139.994 386.408 150.465 388.922 161.349L372.475 162.047C371.197 156.643 369.423 151.368 367.176 146.289C360.516 131.274 351.445 122.017 346.092 116.638C334.896 104.888 321.094 95.9344 305.8 90.5C290.506 85.0655 274.149 83.3024 258.049 85.353C242.508 87.4689 227.632 93.0109 214.495 101.579C180.331 123.846 170.023 159.582 167.426 169.89Z" fill="#017ECB"/>
<path d="M155.712 344.824H131.499V357.257H152.277V368.3H131.499V390.959H119.884V333.699H155.712V344.824ZM165.145 354.803C169.072 350.822 174.061 348.832 180.115 348.832C186.168 348.832 191.049 350.877 194.757 354.967C198.52 359.002 200.401 364.074 200.401 370.182C200.401 371.327 200.319 372.472 200.156 373.617H170.053C170.217 376.835 171.253 379.261 173.162 380.897C175.125 382.479 177.443 383.27 180.115 383.27C183.823 383.27 186.686 381.961 188.704 379.343H199.747C195.766 387.905 189.222 392.186 180.115 392.186C174.061 392.186 169.072 390.223 165.145 386.296C161.219 382.315 159.256 377.053 159.256 370.509C159.256 363.965 161.219 358.73 165.145 354.803ZM179.869 357.912C177.633 357.912 175.561 358.593 173.652 359.957C171.798 361.265 170.653 363.338 170.217 366.173H189.44C189.167 363.392 188.022 361.32 186.004 359.957C184.041 358.593 181.996 357.912 179.869 357.912ZM218.107 350.059V359.548C219.416 356.712 221.461 354.285 224.242 352.268C227.023 350.25 230.159 349.241 233.649 349.241V361.265C229.831 360.829 226.287 361.838 223.015 364.292C219.743 366.692 218.107 369.882 218.107 373.863V390.959H207.227V350.059H218.107ZM250.68 350.059V359.548C251.988 356.712 254.033 354.285 256.815 352.268C259.596 350.25 262.731 349.241 266.222 349.241V361.265C262.404 360.829 258.86 361.838 255.588 364.292C252.316 366.692 250.68 369.882 250.68 373.863V390.959H239.8V350.059H250.68ZM300.238 350.059H312.181L295.821 390.877C293.421 396.876 290.558 400.966 287.232 403.147C283.96 405.383 279.488 406.501 273.817 406.501V397.421C276.762 397.421 279.079 396.848 280.77 395.703C282.515 394.612 283.905 392.649 284.941 389.814L268.663 350.059H280.606L290.258 377.707L300.238 350.059Z" fill="#017ECB"/>
<path d="M346.179 332.472C352.723 332.472 358.422 334.244 363.275 337.789C368.129 341.334 371.319 346.16 372.846 352.268H360.494C359.567 349.486 357.822 347.332 355.259 345.805C352.751 344.224 349.724 343.433 346.179 343.433C340.78 343.433 336.527 345.178 333.419 348.668C330.31 352.104 328.756 356.657 328.756 362.329C328.756 368 330.31 372.581 333.419 376.071C336.527 379.507 340.78 381.225 346.179 381.225C350.378 381.225 353.868 380.216 356.65 378.198C359.485 376.18 361.258 373.263 361.967 369.445H346.67V359.957H374.237C374.346 361.484 374.4 362.602 374.4 363.31C374.4 371.763 371.728 378.689 366.384 384.088C361.094 389.486 354.359 392.186 346.179 392.186C337.836 392.186 330.91 389.459 325.402 384.006C319.894 378.498 317.14 371.272 317.14 362.329C317.14 353.385 319.894 346.187 325.402 340.734C330.91 335.226 337.836 332.472 346.179 332.472ZM385.977 354.803C390.013 350.822 395.084 348.832 401.192 348.832C407.3 348.832 412.371 350.822 416.407 354.803C420.442 358.73 422.46 363.965 422.46 370.509C422.46 377.053 420.442 382.315 416.407 386.296C412.371 390.223 407.3 392.186 401.192 392.186C395.084 392.186 390.013 390.223 385.977 386.296C381.942 382.315 379.924 377.053 379.924 370.509C379.924 363.965 381.942 358.73 385.977 354.803ZM393.994 379.098C396.175 380.952 398.574 381.879 401.192 381.879C403.81 381.879 406.182 380.952 408.309 379.098C410.49 377.244 411.581 374.381 411.581 370.509C411.581 366.637 410.49 363.774 408.309 361.92C406.182 360.066 403.81 359.139 401.192 359.139C398.574 359.139 396.175 360.066 393.994 361.92C391.867 363.774 390.804 366.637 390.804 370.509C390.804 374.381 391.867 377.244 393.994 379.098Z" fill="#017ECB"/>
</svg>
